# xmcd CD database file
#
# Track frame offsets:
#	182
#	21545
#	41725
#	69802
#	88540
#	100470
#	109762
#	115717
#	127155
#	142302
#	157990
#	169987
#	178680
#	192310
#	228847
#	240002
#	264282
#
# Disc length: 3803 seconds
#
# Revision: 0
# Processed by: cddbd v1.4PL0 Copyright (c) Steve Scherf et al.
# Submitted via: CDex 1.50
#
DISCID=e50ed911
DTITLE=The Sir Aligator's Company - En Directo
DYEAR=1999
DGENRE=Jazz
TTITLE0=The right time - Black or white
TTITLE1=McLidown
TTITLE2=Bohemian rhapsody
TTITLE3=I've got you (I feel good)
TTITLE4=Unchaine my heart
TTITLE5=Wish for the folks
TTITLE6=Unchaine my heart (bis)
TTITLE7=Lágrimas de cocodrilo
TTITLE8=California dreamin'
TTITLE9=Que nadie sepa mi sufrir
TTITLE10=It's not unusual
TTITLE11=Crocodile rock
TTITLE12=Croco's eyes
TTITLE13=My way
TTITLE14=Baby elephant walk
TTITLE15=Peter Gunn
TTITLE16=Un beso y una flor
EXTD=YEAR: 1999
EXTT0=
EXTT1=
EXTT2=
EXTT3=
EXTT4=
EXTT5=
EXTT6=
EXTT7=
EXTT8=
EXTT9=
EXTT10=
EXTT11=
EXTT12=
EXTT13=
EXTT14=
EXTT15=
EXTT16=
PLAYORDER=
